<svg xmlns:xlink="http://www.w3.org/1999/xlink" xmlns="http://www.w3.org/2000/svg" width="24" height="20" viewBox="0 0 24 20" fill="none">
<rect x="0.5" y="3.5" width="23" height="16" stroke="black"></rect>
<path fill-rule="evenodd" clip-rule="evenodd" d="M9.38732 2.03657C8.78847 2.69195 8.51041 3.48513 8.44082 4L7.5 3.89125C7.58843 3.23705 7.92667 2.27661 8.66311 1.47065C9.33996 0.729911 10.3472 0.128524 11.763 0.0181404V0C11.8432 0 11.9222 0.00150184 12 0.0044523C12.0778 0.00150184 12.1568 0 12.237 0V0.0181404C13.6528 0.128524 14.66 0.729911 15.3369 1.47065C16.0733 2.27661 16.4116 3.23705 16.5 3.89125L15.5592 4C15.4896 3.48513 15.2115 2.69195 14.6127 2.03657C14.062 1.43393 13.234 0.938532 12 0.882151C10.766 0.938532 9.93798 1.43393 9.38732 2.03657Z" fill="black"></path>
</svg>